<svg width="38" height="37" viewBox="0 0 38 37" fill="none" xmlns="http://www.w3.org/2000/svg">
<path d="M38 18.5C38 28.7173 29.4934 37 19 37C8.50656 37 0 28.7173 0 18.5C0 8.2827 8.50656 0 19 0C29.4934 0 38 8.2827 38 18.5ZM16.8023 28.2956L30.8991 14.5698C31.3777 14.1037 31.3777 13.348 30.8991 12.8819L29.1655 11.194C28.6869 10.7278 27.9107 10.7278 27.4319 11.194L15.9355 22.3878L10.5681 17.1617C10.0894 16.6956 9.31322 16.6956 8.83446 17.1617L7.10094 18.8496C6.62227 19.3156 6.62227 20.0714 7.10094 20.5375L15.0687 28.2955C15.5474 28.7617 16.3235 28.7617 16.8023 28.2956Z" fill="#B89ED9"/>
</svg>
