<svg width="50" height="48" viewBox="0 0 50 48" fill="none" xmlns="http://www.w3.org/2000/svg">
<path d="M18.75 18H21.875V36H18.75V18Z" fill="white"/>
<path d="M28.125 18H31.25V36H28.125V18Z" fill="white"/>
<path d="M6.25 9V12H9.375V42C9.375 42.7957 9.70424 43.5587 10.2903 44.1213C10.8763 44.6839 11.6712 45 12.5 45H37.5C38.3288 45 39.1237 44.6839 39.7097 44.1213C40.2958 43.5587 40.625 42.7957 40.625 42V12H43.75V9H6.25ZM12.5 42V12H37.5V42H12.5Z" fill="white"/>
<path d="M18.75 3H31.25V6H18.75V3Z" fill="white"/>
</svg>
